<?xml version="1.0" encoding="utf-8"?>
<svg id="master-artboard" viewBox="0 0 2697.370849609375 841.4406127929688" version="1.1" xmlns="http://www.w3.org/2000/svg" x="0px" y="0px" style="enable-background:new 0 0 336 235.2;" width="2697.370849609375px" height="841.4406127929688px"><rect id="ee-background" x="0" y="0" width="2697.370849609375" height="841.4406127929688" style="fill: white; fill-opacity: 0; pointer-events: none;"/>














<g transform="matrix(-5.4949787406235195, 0, 0, 5.4949787406235195, 427.8578580010667, 6.433709914559378)"><path id="path26" stroke="rgba(255,255,255,255)" fill="rgb(255,255,255)" d="m51.688 5.25c-5.427-0.1409-11.774 12.818-11.563 24.375 0.049 3.52 1.16 10.659 2.781 19.625-10.223 10.581-22.094 21.44-22.094 35.688-0.163 13.057 7.817 29.692 26.75 29.532 2.906-0.02 5.521-0.38 7.844-1 1.731 9.49 2.882 16.98 2.875 20.44 0.061 13.64-17.86 14.99-18.719 7.15 3.777-0.13 6.782-3.13 6.782-6.84 0-3.79-3.138-6.88-7.032-6.88-2.141 0-4.049 0.94-5.343 2.41-0.03 0.03-0.065 0.06-0.094 0.09-0.292 0.31-0.538 0.68-0.781 1.1-0.798 1.35-1.316 3.29-1.344 6.06 0 11.42 28.875 18.77 28.875-3.75 0.045-3.03-1.258-10.72-3.156-20.41 20.603-7.45 15.427-38.04-3.531-38.184-1.47 0.015-2.887 0.186-4.25 0.532-1.08-5.197-2.122-10.241-3.032-14.876 7.199-7.071 13.485-16.224 13.344-33.093 0.022-12.114-4.014-21.828-8.312-21.969zm1.281 11.719c2.456-0.237 4.406 2.043 4.406 7.062 0.199 8.62-5.84 16.148-13.031 23.719-0.688-4.147-1.139-7.507-1.188-9.5 0.204-13.466 5.719-20.886 9.813-21.281zm-7.719 44.687c0.877 4.515 1.824 9.272 2.781 14.063-12.548 4.464-18.57 21.954-0.781 29.781-10.843-9.231-5.506-20.158 2.312-22.062 1.966 9.816 3.886 19.502 5.438 27.872-2.107 0.74-4.566 1.17-7.438 1.19-7.181 0-21.531-4.57-21.531-21.875 0-14.494 10.047-20.384 19.219-28.969zm6.094 21.469c0.313-0.019 0.652-0.011 0.968 0 13.063 0 17.99 20.745 4.688 27.375-1.655-8.32-3.662-17.86-5.656-27.375z"/><metadata>
    
  </metadata></g><path d="M 436.091064453125 522.2857055664062 C 436.1710510253906 522.0723876953125 436.2610778808594 521.845703125 436.3610534667969 521.605712890625 C 436.4610595703125 521.3723754882812 436.5610656738281 521.1256713867188 436.66107177734375 520.86572265625 L 432.341064453125 510.28570556640625 L 430.6910705566406 509.8757019042969 L 430.9210510253906 508.7956848144531 L 436.0710754394531 508.7956848144531 L 436.0710754394531 509.5057067871094 L 434.6310729980469 510.1156921386719 L 437.60107421875 517.4757080078125 L 437.7410583496094 518.1557006835938 L 441.0510559082031 510.1856994628906 L 439.591064453125 509.9457092285156 L 439.8310546875 508.7956848144531 L 444.1110534667969 508.7956848144531 L 444.1110534667969 509.5057067871094 L 442.54107666015625 510.2156982421875 C 441.7877197265625 512.0823364257812 441.0777282714844 513.7556762695312 440.41107177734375 515.2357177734375 C 439.7510681152344 516.7156982421875 439.1910705566406 518.0423583984375 438.7310791015625 519.2156982421875 C 438.2977294921875 520.3023681640625 437.9043884277344 521.279052734375 437.5510559082031 522.1456909179688 C 437.1977233886719 523.01904296875 436.8443908691406 523.759033203125 436.4910583496094 524.36572265625 C 436.3177185058594 524.6856689453125 436.1110534667969 524.9923706054688 435.8710632324219 525.2857055664062 C 435.6243896484375 525.5723876953125 435.35107421875 525.8290405273438 435.0510559082031 526.0557250976562 C 434.7510681152344 526.2756958007812 434.41107177734375 526.452392578125 434.03106689453125 526.585693359375 C 433.6577453613281 526.7257080078125 433.2310791015625 526.7957153320312 432.7510681152344 526.7957153320312 C 432.264404296875 526.7957153320312 431.75439453125 526.7190551757812 431.2210693359375 526.565673828125 L 431.8810729980469 524.565673828125 C 432.40106201171875 524.6790161132812 432.8743896484375 524.7357177734375 433.3010559082031 524.7357177734375 C 433.7344055175781 524.7357177734375 434.0877380371094 524.6757202148438 434.3610534667969 524.5557250976562 C 434.6343994140625 524.4290161132812 434.8644104003906 524.259033203125 435.0510559082031 524.0457153320312 C 435.244384765625 523.8323364257812 435.417724609375 523.57568359375 435.5710754394531 523.2756958007812 C 435.7243957519531 522.9823608398438 435.8977355957031 522.65234375 436.091064453125 522.2857055664062 ZM 456.64532470703125 519.7857055664062 L 458.5653381347656 520.1956787109375 L 458.3253173828125 521.2756958007812 L 452.63531494140625 521.2756958007812 L 452.63531494140625 520.565673828125 L 454.4753112792969 519.835693359375 L 454.4753112792969 513.4757080078125 C 454.4753112792969 512.8890380859375 454.42864990234375 512.40234375 454.3353271484375 512.0156860351562 C 454.24200439453125 511.6290283203125 454.0986633300781 511.32568359375 453.90533447265625 511.1056823730469 C 453.7186584472656 510.8923645019531 453.4786682128906 510.7456970214844 453.1853332519531 510.66571044921875 C 452.8986511230469 510.5923767089844 452.5653381347656 510.5556945800781 452.1853332519531 510.5556945800781 C 451.858642578125 510.5556945800781 451.531982421875 510.5823669433594 451.205322265625 510.63568115234375 C 450.878662109375 510.68902587890625 450.56866455078125 510.7723693847656 450.27532958984375 510.88568115234375 C 449.9753112792969 510.9990234375 449.7019958496094 511.1257019042969 449.455322265625 511.26568603515625 C 449.2086486816406 511.40570068359375 449.00531005859375 511.57568359375 448.8453369140625 511.77569580078125 L 448.8453369140625 519.7857055664062 L 450.6653137207031 520.1256713867188 L 450.4253234863281 521.2756958007812 L 444.6253356933594 521.2756958007812 L 444.6253356933594 520.565673828125 L 446.705322265625 519.835693359375 L 446.705322265625 510.64569091796875 L 444.71533203125 510.2557067871094 L 444.5953369140625 509.2056884765625 L 448.8453369140625 508.63568115234375 L 448.8453369140625 510.595703125 C 449.11865234375 510.2623596191406 449.4253234863281 509.97235107421875 449.76531982421875 509.7257080078125 C 450.11199951171875 509.47235107421875 450.4686584472656 509.2623596191406 450.8353271484375 509.095703125 C 451.2019958496094 508.92901611328125 451.56866455078125 508.8023681640625 451.9353332519531 508.7156982421875 C 452.302001953125 508.6290283203125 452.6519775390625 508.585693359375 452.9853210449219 508.585693359375 C 454.14532470703125 508.585693359375 455.0386657714844 508.9356994628906 455.6653137207031 509.63568115234375 C 456.28533935546875 510.3423767089844 456.61199951171875 511.4590148925781 456.64532470703125 512.9857177734375 L 456.64532470703125 519.7857055664062 ZM 462.27484130859375 514.845703125 C 462.27484130859375 515.6456909179688 462.3815002441406 516.3590087890625 462.5948486328125 516.9857177734375 C 462.80816650390625 517.605712890625 463.1048278808594 518.1356811523438 463.4848327636719 518.57568359375 C 463.8714904785156 519.0156860351562 464.3248291015625 519.3523559570312 464.8448486328125 519.585693359375 C 465.3648376464844 519.8123779296875 465.92816162109375 519.9257202148438 466.53485107421875 519.9257202148438 C 467.6614990234375 519.9257202148438 468.8381652832031 519.5357055664062 470.0648498535156 518.7556762695312 L 470.5948486328125 519.6657104492188 C 469.80816650390625 520.279052734375 469.0014953613281 520.7357177734375 468.1748352050781 521.0357055664062 C 467.34149169921875 521.335693359375 466.52484130859375 521.4857177734375 465.7248229980469 521.4857177734375 C 464.9248352050781 521.4857177734375 464.1715087890625 521.3423461914062 463.46484375 521.0557250976562 C 462.76483154296875 520.7756958007812 462.14483642578125 520.355712890625 461.6048278808594 519.7957153320312 C 461.0715026855469 519.2423706054688 460.6481628417969 518.5623779296875 460.3348388671875 517.7556762695312 C 460.0215148925781 516.9556884765625 459.8648376464844 516.0323486328125 459.8648376464844 514.9857177734375 C 459.8648376464844 513.9257202148438 460.0381774902344 512.9956665039062 460.38482666015625 512.1956787109375 C 460.7248229980469 511.39569091796875 461.1715087890625 510.7290344238281 461.7248229980469 510.1957092285156 C 462.2781677246094 509.662353515625 462.8981628417969 509.2623596191406 463.5848388671875 508.9956970214844 C 464.2715148925781 508.7356872558594 464.9581604003906 508.6056823730469 465.64483642578125 508.6056823730469 C 466.7248229980469 508.6056823730469 467.5948486328125 508.7890319824219 468.25482177734375 509.15570068359375 C 468.9215087890625 509.5223693847656 469.4414978027344 510.0023498535156 469.8148498535156 510.595703125 C 470.18817138671875 511.182373046875 470.44482421875 511.8490295410156 470.5848388671875 512.595703125 C 470.7181701660156 513.3423461914062 470.78485107421875 514.0923461914062 470.78485107421875 514.845703125 L 462.27484130859375 514.845703125 M 468.38482666015625 513.5557250976562 C 468.38482666015625 512.9290161132812 468.3048400878906 512.3823852539062 468.14483642578125 511.91571044921875 C 467.9848327636719 511.4556884765625 467.7781677246094 511.07568359375 467.52484130859375 510.77569580078125 C 467.26483154296875 510.4757080078125 466.9615173339844 510.2557067871094 466.6148376464844 510.1156921386719 C 466.27484130859375 509.9690246582031 465.92816162109375 509.89569091796875 465.5748291015625 509.89569091796875 C 465.19482421875 509.89569091796875 464.8148498535156 509.9757080078125 464.4348449707031 510.13568115234375 C 464.0614929199219 510.2956848144531 463.72149658203125 510.5323486328125 463.4148254394531 510.845703125 C 463.1148376464844 511.1590270996094 462.8648376464844 511.5390319824219 462.6648254394531 511.9856872558594 C 462.46484375 512.4390258789062 462.3581848144531 512.9623413085938 462.3448486328125 513.5557250976562 L 468.38482666015625 513.5557250976562 ZM 472.8064270019531 517.4757080078125 L 474.0564270019531 517.2656860351562 L 474.7064514160156 519.6456909179688 C 475.1197814941406 519.8190307617188 475.4864501953125 519.9556884765625 475.8064270019531 520.0557250976562 C 476.1264343261719 520.1490478515625 476.519775390625 520.1956787109375 476.9864501953125 520.1956787109375 C 477.7064514160156 520.1956787109375 478.29644775390625 520.0357055664062 478.7564392089844 519.7156982421875 C 479.20977783203125 519.3956909179688 479.443115234375 518.8756713867188 479.4564514160156 518.1557006835938 C 479.4764404296875 517.6890258789062 479.32977294921875 517.3090209960938 479.0164489746094 517.0156860351562 C 478.7030944824219 516.7223510742188 478.3064270019531 516.4590454101562 477.8264465332031 516.2257080078125 C 477.346435546875 515.9923706054688 476.82977294921875 515.7723388671875 476.27642822265625 515.565673828125 C 475.7297668457031 515.3590087890625 475.2164306640625 515.1023559570312 474.7364501953125 514.7957153320312 C 474.2564392089844 514.489013671875 473.8531188964844 514.1223754882812 473.52642822265625 513.6956787109375 C 473.2064514160156 513.2623901367188 473.04644775390625 512.7123413085938 473.04644775390625 512.0457153320312 C 473.04644775390625 511.4190368652344 473.19976806640625 510.8890380859375 473.5064392089844 510.4556884765625 C 473.8131103515625 510.0223693847656 474.2030944824219 509.6690368652344 474.67645263671875 509.39569091796875 C 475.15643310546875 509.12237548828125 475.6964416503906 508.9256896972656 476.29644775390625 508.8056945800781 C 476.8964538574219 508.6923522949219 477.4864501953125 508.63568115234375 478.0664367675781 508.63568115234375 C 478.75311279296875 508.63568115234375 479.3797607421875 508.7056884765625 479.9464416503906 508.845703125 C 480.51312255859375 508.99237060546875 480.91644287109375 509.182373046875 481.15643310546875 509.41571044921875 L 481.15643310546875 512.4157104492188 L 479.90643310546875 512.6356811523438 L 479.2664489746094 510.1856994628906 C 478.99310302734375 510.11236572265625 478.74310302734375 510.0523681640625 478.5164489746094 510.0057067871094 C 478.29644775390625 509.9656982421875 477.99310302734375 509.9457092285156 477.6064453125 509.9457092285156 C 477.3064270019531 509.9457092285156 477.01312255859375 509.9757080078125 476.7264404296875 510.03570556640625 C 476.4464416503906 510.0890197753906 476.19976806640625 510.17901611328125 475.9864501953125 510.3056945800781 C 475.7731018066406 510.432373046875 475.5997619628906 510.6090393066406 475.4664306640625 510.835693359375 C 475.33978271484375 511.0623779296875 475.27642822265625 511.3423767089844 475.27642822265625 511.6756896972656 C 475.27642822265625 512.1557006835938 475.4364318847656 512.5523681640625 475.7564392089844 512.86572265625 C 476.0764465332031 513.17236328125 476.4731140136719 513.4490356445312 476.9464416503906 513.6956787109375 C 477.4197692871094 513.9356689453125 477.9364318847656 514.162353515625 478.4964294433594 514.3756713867188 C 479.0564270019531 514.595703125 479.56976318359375 514.8489990234375 480.03643798828125 515.1356811523438 C 480.509765625 515.42236328125 480.90643310546875 515.779052734375 481.2264404296875 516.2056884765625 C 481.54644775390625 516.6256713867188 481.7064514160156 517.1557006835938 481.7064514160156 517.7957153320312 C 481.7064514160156 518.4956665039062 481.5764465332031 519.085693359375 481.3164367675781 519.565673828125 C 481.0497741699219 520.0523681640625 480.693115234375 520.4390258789062 480.2464294433594 520.7257080078125 C 479.7997741699219 521.0123901367188 479.2931213378906 521.2156982421875 478.7264404296875 521.335693359375 C 478.1531066894531 521.4490356445312 477.5664367675781 521.5056762695312 476.9664306640625 521.5056762695312 C 476.173095703125 521.5056762695312 475.4097595214844 521.4290161132812 474.67645263671875 521.2756958007812 C 473.943115234375 521.1223754882812 473.31976318359375 520.932373046875 472.8064270019531 520.7056884765625 L 472.8064270019531 517.4757080078125 ZM 491.45965576171875 519.6256713867188 C 491.0929870605469 520.1923828125 490.5596618652344 520.6590576171875 489.85968017578125 521.0256958007812 C 489.15301513671875 521.3856811523438 488.4396667480469 521.565673828125 487.71966552734375 521.565673828125 C 487.1929931640625 521.565673828125 486.75299072265625 521.4823608398438 486.399658203125 521.315673828125 C 486.04632568359375 521.1490478515625 485.7696533203125 520.912353515625 485.5696716308594 520.605712890625 C 485.3696594238281 520.2990112304688 485.2263488769531 519.9390258789062 485.1396789550781 519.5256958007812 C 485.04632568359375 519.105712890625 484.9996643066406 518.6590576171875 484.9996643066406 518.1856689453125 L 484.9996643066406 510.14569091796875 L 483.10968017578125 510.14569091796875 L 483.10968017578125 509.2956848144531 L 485.1196594238281 508.57568359375 L 485.95965576171875 505.9256896972656 L 487.169677734375 505.9256896972656 L 487.169677734375 508.7956848144531 L 490.9996643066406 508.7956848144531 L 490.9996643066406 510.1156921386719 L 487.169677734375 510.1156921386719 L 487.169677734375 517.605712890625 C 487.169677734375 518.0390014648438 487.18634033203125 518.40234375 487.21966552734375 518.6956787109375 C 487.25299072265625 518.9956665039062 487.31634521484375 519.2323608398438 487.40966796875 519.4057006835938 C 487.50299072265625 519.5790405273438 487.6396789550781 519.702392578125 487.8196716308594 519.7756958007812 C 488.00634765625 519.8489990234375 488.2496643066406 519.8856811523438 488.5496826171875 519.8856811523438 C 488.9230041503906 519.8856811523438 489.3030090332031 519.8190307617188 489.6896667480469 519.6856689453125 C 490.0763244628906 519.5590209960938 490.51300048828125 519.345703125 490.9996643066406 519.0457153320312 L 491.45965576171875 519.6256713867188 ZM 496.2962341308594 510.595703125 C 496.5628967285156 510.2623596191406 496.86956787109375 509.97235107421875 497.21624755859375 509.7257080078125 C 497.5562438964844 509.47235107421875 497.91290283203125 509.2623596191406 498.2862243652344 509.095703125 C 498.6595764160156 508.92901611328125 499.0295715332031 508.8023681640625 499.396240234375 508.7156982421875 C 499.7629089355469 508.6290283203125 500.1129150390625 508.585693359375 500.44622802734375 508.585693359375 C 501.5928955078125 508.585693359375 502.48291015625 508.9356994628906 503.1162414550781 509.63568115234375 C 503.74957275390625 510.3423767089844 504.06622314453125 511.4590148925781 504.06622314453125 512.9857177734375 L 504.09625244140625 519.7857055664062 L 506.0162353515625 520.1956787109375 L 505.7662353515625 521.2756958007812 L 500.08624267578125 521.2756958007812 L 500.08624267578125 520.565673828125 L 501.9362487792969 519.835693359375 L 501.9362487792969 513.4757080078125 C 501.9362487792969 512.8890380859375 501.88623046875 512.40234375 501.7862243652344 512.0156860351562 C 501.6929016113281 511.6290283203125 501.549560546875 511.32568359375 501.3562316894531 511.1056823730469 C 501.16290283203125 510.8923645019531 500.92291259765625 510.7456970214844 500.63623046875 510.66571044921875 C 500.3495788574219 510.5923767089844 500.0129089355469 510.5556945800781 499.6262512207031 510.5556945800781 C 499.3062438964844 510.5556945800781 498.98291015625 510.5823669433594 498.65625 510.63568115234375 C 498.3295593261719 510.68902587890625 498.0162353515625 510.7723693847656 497.71624755859375 510.88568115234375 C 497.42291259765625 510.9990234375 497.15289306640625 511.1257019042969 496.90625 511.26568603515625 C 496.6595764160156 511.40570068359375 496.45623779296875 511.57568359375 496.2962341308594 511.77569580078125 L 496.2962341308594 519.7857055664062 L 498.09625244140625 520.1256713867188 L 497.8562316894531 521.2756958007812 L 492.0262451171875 521.2756958007812 L 492.0262451171875 520.565673828125 L 494.13623046875 519.835693359375 L 494.13623046875 505.2257080078125 L 492.13623046875 504.835693359375 L 492.0262451171875 503.845703125 L 496.2962341308594 503.27569580078125 L 496.2962341308594 510.595703125 ZM 509.72247314453125 514.845703125 C 509.72247314453125 515.6456909179688 509.8291320800781 516.3590087890625 510.04248046875 516.9857177734375 C 510.25579833984375 517.605712890625 510.5524597167969 518.1356811523438 510.9324645996094 518.57568359375 C 511.3191223144531 519.0156860351562 511.7724609375 519.3523559570312 512.29248046875 519.585693359375 C 512.8124389648438 519.8123779296875 513.3757934570312 519.9257202148438 513.9824829101562 519.9257202148438 C 515.109130859375 519.9257202148438 516.2858276367188 519.5357055664062 517.512451171875 518.7556762695312 L 518.04248046875 519.6657104492188 C 517.2557983398438 520.279052734375 516.4491577148438 520.7357177734375 515.6224975585938 521.0357055664062 C 514.7891235351562 521.335693359375 513.9724731445312 521.4857177734375 513.1724853515625 521.4857177734375 C 512.3724975585938 521.4857177734375 511.619140625 521.3423461914062 510.9124755859375 521.0557250976562 C 510.21246337890625 520.7756958007812 509.59246826171875 520.355712890625 509.0524597167969 519.7957153320312 C 508.5191345214844 519.2423706054688 508.0957946777344 518.5623779296875 507.782470703125 517.7556762695312 C 507.4691467285156 516.9556884765625 507.3124694824219 516.0323486328125 507.3124694824219 514.9857177734375 C 507.3124694824219 513.9257202148438 507.4858093261719 512.9956665039062 507.83245849609375 512.1956787109375 C 508.1724548339844 511.39569091796875 508.619140625 510.7290344238281 509.1724548339844 510.1957092285156 C 509.7257995605469 509.662353515625 510.3457946777344 509.2623596191406 511.032470703125 508.9956970214844 C 511.7191467285156 508.7356872558594 512.4058227539062 508.6056823730469 513.0924682617188 508.6056823730469 C 514.1724853515625 508.6056823730469 515.04248046875 508.7890319824219 515.7024536132812 509.15570068359375 C 516.369140625 509.5223693847656 516.88916015625 510.0023498535156 517.262451171875 510.595703125 C 517.6358032226562 511.182373046875 517.8924560546875 511.8490295410156 518.032470703125 512.595703125 C 518.165771484375 513.3423461914062 518.2324829101562 514.0923461914062 518.2324829101562 514.845703125 L 509.72247314453125 514.845703125 M 515.8324584960938 513.5557250976562 C 515.8324584960938 512.9290161132812 515.75244140625 512.3823852539062 515.5924682617188 511.91571044921875 C 515.4324951171875 511.4556884765625 515.225830078125 511.07568359375 514.9724731445312 510.77569580078125 C 514.7124633789062 510.4757080078125 514.4091186523438 510.2557067871094 514.0624389648438 510.1156921386719 C 513.7224731445312 509.9690246582031 513.3757934570312 509.89569091796875 513.0224609375 509.89569091796875 C 512.6424560546875 509.89569091796875 512.262451171875 509.9757080078125 511.8824768066406 510.13568115234375 C 511.5091247558594 510.2956848144531 511.16912841796875 510.5323486328125 510.8624572753906 510.845703125 C 510.5624694824219 511.1590270996094 510.3124694824219 511.5390319824219 510.1124572753906 511.9856872558594 C 509.9124755859375 512.4390258789062 509.8058166503906 512.9623413085938 509.79248046875 513.5557250976562 L 515.8324584960938 513.5557250976562 ZM 520.2540893554688 517.4757080078125 L 521.5040893554688 517.2656860351562 L 522.154052734375 519.6456909179688 C 522.5673828125 519.8190307617188 522.93408203125 519.9556884765625 523.2540893554688 520.0557250976562 C 523.5740966796875 520.1490478515625 523.9674072265625 520.1956787109375 524.43408203125 520.1956787109375 C 525.154052734375 520.1956787109375 525.7440795898438 520.0357055664062 526.2041015625 519.7156982421875 C 526.6574096679688 519.3956909179688 526.8907470703125 518.8756713867188 526.904052734375 518.1557006835938 C 526.924072265625 517.6890258789062 526.7774047851562 517.3090209960938 526.4640502929688 517.0156860351562 C 526.1507568359375 516.7223510742188 525.7540893554688 516.4590454101562 525.2740478515625 516.2257080078125 C 524.7940673828125 515.9923706054688 524.2774047851562 515.7723388671875 523.7240600585938 515.565673828125 C 523.1774291992188 515.3590087890625 522.6640625 515.1023559570312 522.18408203125 514.7957153320312 C 521.7041015625 514.489013671875 521.3007202148438 514.1223754882812 520.9740600585938 513.6956787109375 C 520.654052734375 513.2623901367188 520.4940795898438 512.7123413085938 520.4940795898438 512.0457153320312 C 520.4940795898438 511.4190368652344 520.6473999023438 510.8890380859375 520.9541015625 510.4556884765625 C 521.2607421875 510.0223693847656 521.6507568359375 509.6690368652344 522.1240844726562 509.39569091796875 C 522.6040649414062 509.12237548828125 523.14404296875 508.9256896972656 523.7440795898438 508.8056945800781 C 524.3440551757812 508.6923522949219 524.93408203125 508.63568115234375 525.5140991210938 508.63568115234375 C 526.2007446289062 508.63568115234375 526.827392578125 508.7056884765625 527.39404296875 508.845703125 C 527.9607543945312 508.99237060546875 528.3640747070312 509.182373046875 528.6040649414062 509.41571044921875 L 528.6040649414062 512.4157104492188 L 527.3540649414062 512.6356811523438 L 526.7140502929688 510.1856994628906 C 526.4407348632812 510.11236572265625 526.1907348632812 510.0523681640625 525.9640502929688 510.0057067871094 C 525.7440795898438 509.9656982421875 525.4407348632812 509.9457092285156 525.0540771484375 509.9457092285156 C 524.7540893554688 509.9457092285156 524.4607543945312 509.9757080078125 524.174072265625 510.03570556640625 C 523.89404296875 510.0890197753906 523.6473999023438 510.17901611328125 523.43408203125 510.3056945800781 C 523.2207641601562 510.432373046875 523.0474243164062 510.6090393066406 522.9140625 510.835693359375 C 522.7874145507812 511.0623779296875 522.7240600585938 511.3423767089844 522.7240600585938 511.6756896972656 C 522.7240600585938 512.1557006835938 522.8840942382812 512.5523681640625 523.2041015625 512.86572265625 C 523.5240478515625 513.17236328125 523.9207153320312 513.4490356445312 524.39404296875 513.6956787109375 C 524.867431640625 513.9356689453125 525.3840942382812 514.162353515625 525.944091796875 514.3756713867188 C 526.5040893554688 514.595703125 527.0173950195312 514.8489990234375 527.4840698242188 515.1356811523438 C 527.9573974609375 515.42236328125 528.3540649414062 515.779052734375 528.674072265625 516.2056884765625 C 528.9940795898438 516.6256713867188 529.154052734375 517.1557006835938 529.154052734375 517.7957153320312 C 529.154052734375 518.4956665039062 529.0240478515625 519.085693359375 528.7640991210938 519.565673828125 C 528.4974365234375 520.0523681640625 528.1407470703125 520.4390258789062 527.694091796875 520.7257080078125 C 527.2474365234375 521.0123901367188 526.74072265625 521.2156982421875 526.174072265625 521.335693359375 C 525.6007690429688 521.4490356445312 525.0140991210938 521.5056762695312 524.4140625 521.5056762695312 C 523.6207275390625 521.5056762695312 522.857421875 521.4290161132812 522.1240844726562 521.2756958007812 C 521.3907470703125 521.1223754882812 520.7673950195312 520.932373046875 520.2540893554688 520.7056884765625 L 520.2540893554688 517.4757080078125 ZM 535.0573120117188 519.7857055664062 L 536.8572998046875 520.1256713867188 L 536.6072998046875 521.2756958007812 L 530.7872924804688 521.2756958007812 L 530.7872924804688 520.565673828125 L 532.8972778320312 519.835693359375 L 532.8972778320312 510.5556945800781 L 530.9473266601562 510.1856994628906 L 530.8372802734375 509.2056884765625 L 535.0573120117188 508.63568115234375 L 535.0573120117188 519.7857055664062 M 532.0972900390625 505.1257019042969 C 532.5039672851562 504.4256896972656 533.0673217773438 503.87237548828125 533.7872924804688 503.4656982421875 C 534.4873046875 503.8323669433594 535.0239868164062 504.3690185546875 535.3972778320312 505.07568359375 C 534.977294921875 505.7823486328125 534.4172973632812 506.335693359375 533.71728515625 506.7356872558594 C 533.3839721679688 506.5556945800781 533.073974609375 506.32568359375 532.7872924804688 506.0456848144531 C 532.50732421875 505.7723693847656 532.2772827148438 505.4656982421875 532.0972900390625 505.1257019042969 ZM 545.7095336914062 521.2756958007812 L 545.7095336914062 519.32568359375 C 545.462890625 519.6190185546875 545.1695556640625 519.892333984375 544.8295288085938 520.1456909179688 C 544.48291015625 520.4057006835938 544.1195678710938 520.6356811523438 543.7395629882812 520.835693359375 C 543.3529052734375 521.0357055664062 542.9662475585938 521.1890258789062 542.5795288085938 521.2957153320312 C 542.1862182617188 521.4090576171875 541.8128662109375 521.4656982421875 541.4595336914062 521.4656982421875 C 541.0262451171875 521.4656982421875 540.6162109375 521.3990478515625 540.2295532226562 521.2656860351562 C 539.8495483398438 521.1323852539062 539.5128784179688 520.9290161132812 539.2195434570312 520.6557006835938 C 538.932861328125 520.3823852539062 538.702880859375 520.0523681640625 538.529541015625 519.6657104492188 C 538.3495483398438 519.2857055664062 538.2595825195312 518.8390502929688 538.2595825195312 518.32568359375 C 538.2595825195312 517.5256958007812 538.4662475585938 516.8756713867188 538.8795776367188 516.3756713867188 C 539.2861938476562 515.8690185546875 540.0095825195312 515.47900390625 541.049560546875 515.2056884765625 C 541.8295288085938 514.9923706054688 542.5828857421875 514.8190307617188 543.3095703125 514.6856689453125 C 544.0361938476562 514.5457153320312 544.8362426757812 514.4290161132812 545.7095336914062 514.335693359375 L 545.7095336914062 512.36572265625 C 545.7095336914062 511.9256896972656 545.6428833007812 511.5490417480469 545.5095825195312 511.2356872558594 C 545.3828735351562 510.92236328125 545.2062377929688 510.66571044921875 544.9795532226562 510.4656982421875 C 544.7595825195312 510.26568603515625 544.5028686523438 510.12237548828125 544.2095336914062 510.03570556640625 C 543.9095458984375 509.9423522949219 543.5928955078125 509.89569091796875 543.2595825195312 509.89569091796875 C 542.8928833007812 509.89569091796875 542.5162353515625 509.92236328125 542.1295776367188 509.9757080078125 C 541.7495727539062 510.0223693847656 541.376220703125 510.1090393066406 541.0095825195312 510.2356872558594 L 540.3295288085938 512.9656982421875 L 539.0795288085938 512.7556762695312 L 539.0795288085938 509.63568115234375 C 539.7062377929688 509.36236572265625 540.376220703125 509.1190185546875 541.0895385742188 508.90570068359375 C 541.7962036132812 508.6923522949219 542.5562133789062 508.585693359375 543.3695678710938 508.585693359375 C 543.9962158203125 508.585693359375 544.5828857421875 508.6490173339844 545.1295776367188 508.77569580078125 C 545.6762084960938 508.89569091796875 546.1528930664062 509.1056823730469 546.5595703125 509.40570068359375 C 546.9662475585938 509.69903564453125 547.2861938476562 510.0923767089844 547.51953125 510.585693359375 C 547.7462158203125 511.0723571777344 547.8595581054688 511.6756896972656 547.8595581054688 512.3956909179688 L 547.8595581054688 519.7656860351562 L 549.5995483398438 520.1757202148438 L 549.3495483398438 521.2756958007812 L 545.7095336914062 521.2756958007812 M 540.6695556640625 518.1356811523438 C 540.6695556640625 518.5156860351562 540.7162475585938 518.8223876953125 540.8095703125 519.0557250976562 C 540.9095458984375 519.2823486328125 541.0429077148438 519.4656982421875 541.2095336914062 519.605712890625 C 541.376220703125 519.7456665039062 541.569580078125 519.8390502929688 541.78955078125 519.8856811523438 C 542.0028686523438 519.932373046875 542.2295532226562 519.9556884765625 542.4695434570312 519.9556884765625 C 542.7495727539062 519.9556884765625 543.049560546875 519.8956909179688 543.3695678710938 519.7756958007812 C 543.6895751953125 519.6557006835938 543.9995727539062 519.509033203125 544.299560546875 519.335693359375 C 544.5928955078125 519.162353515625 544.8662109375 518.9623413085938 545.1195678710938 518.7357177734375 C 545.3662109375 518.509033203125 545.5628662109375 518.2923583984375 545.7095336914062 518.085693359375 L 545.7095336914062 515.345703125 C 545.1962280273438 515.4057006835938 544.682861328125 515.4757080078125 544.1695556640625 515.5557250976562 C 543.65625 515.6290283203125 543.1428833007812 515.7357177734375 542.6295776367188 515.8756713867188 C 541.8828735351562 516.0823364257812 541.3695678710938 516.3856811523438 541.0895385742188 516.7857055664062 C 540.8095703125 517.1856689453125 540.6695556640625 517.6356811523438 540.6695556640625 518.1356811523438 Z" transform="matrix(19.146215438842773, 0, 0, 19.146215438842773, -7889.8701171875, -9384.1484375)" style="fill: rgb(255, 255, 255); white-space: pre; color: rgb(255, 255, 255);"/></svg>