<?xml version="1.0" standalone="no"?>
<!DOCTYPE svg PUBLIC "-//W3C//DTD SVG 20010904//EN"
 "http://www.w3.org/TR/2001/REC-SVG-20010904/DTD/svg10.dtd">
<svg version="1.0" xmlns="http://www.w3.org/2000/svg"
 width="228.000000pt" height="228.000000pt" viewBox="0 0 228.000000 228.000000"
 preserveAspectRatio="xMidYMid meet">

<g transform="translate(0.000000,228.000000) scale(0.100000,-0.100000)"
fill="#000000" stroke="none">
<path d="M760 1850 l0 -70 165 0 165 0 0 70 0 70 -165 0 -165 0 0 -70z"/>
<path d="M760 1615 l0 -75 165 0 165 0 0 75 0 75 -165 0 -165 0 0 -75z"/>
<path d="M1620 1615 l0 -75 165 0 165 0 0 75 0 75 -165 0 -165 0 0 -75z"/>
<path d="M330 1380 l0 -70 170 0 171 0 -3 68 -3 67 -167 3 -168 2 0 -70z"/>
<path d="M760 1380 l0 -70 165 0 165 0 0 70 0 70 -165 0 -165 0 0 -70z"/>
<path d="M1620 1380 l0 -70 165 0 165 0 0 70 0 70 -165 0 -165 0 0 -70z"/>
<path d="M330 1140 l0 -70 170 0 170 0 0 70 0 70 -170 0 -170 0 0 -70z"/>
<path d="M760 1140 l0 -70 165 0 165 0 0 70 0 70 -165 0 -165 0 0 -70z"/>
<path d="M1620 1140 l0 -70 165 0 165 0 0 70 0 70 -165 0 -165 0 0 -70z"/>
<path d="M330 900 l0 -70 168 2 167 3 3 68 3 67 -171 0 -170 0 0 -70z"/>
<path d="M760 900 l0 -70 165 0 165 0 0 70 0 70 -165 0 -165 0 0 -70z"/>
<path d="M1190 900 l0 -70 165 0 165 0 0 70 0 70 -165 0 -165 0 0 -70z"/>
<path d="M1620 900 l0 -70 165 0 165 0 0 70 0 70 -165 0 -165 0 0 -70z"/>
<path d="M334 727 c-3 -8 -4 -41 -2 -73 l3 -59 165 0 165 0 0 70 0 70 -163 3
c-131 2 -163 0 -168 -11z"/>
<path d="M760 665 l0 -75 165 0 165 0 0 75 0 75 -165 0 -165 0 0 -75z"/>
<path d="M1190 665 l0 -75 165 0 165 0 0 75 0 75 -165 0 -165 0 0 -75z"/>
<path d="M1620 665 l0 -75 165 0 165 0 0 75 0 75 -165 0 -165 0 0 -75z"/>
<path d="M330 430 l0 -70 170 0 171 0 -3 68 -3 67 -167 3 -168 2 0 -70z"/>
<path d="M760 430 l0 -70 165 0 165 0 0 70 0 70 -165 0 -165 0 0 -70z"/>
<path d="M1190 430 l0 -70 165 0 165 0 0 70 0 70 -165 0 -165 0 0 -70z"/>
<path d="M1620 430 l0 -70 165 0 165 0 0 70 0 70 -165 0 -165 0 0 -70z"/>
</g>
</svg>
